<?xml version="1.0" standalone="no"?>
<!DOCTYPE svg PUBLIC "-//W3C//DTD SVG 20010904//EN"
 "http://www.w3.org/TR/2001/REC-SVG-20010904/DTD/svg10.dtd">
<svg version="1.0" xmlns="http://www.w3.org/2000/svg"
 width="945.000000pt" height="741.000000pt" viewBox="0 0 945.000000 741.000000"
 preserveAspectRatio="xMidYMid meet">

<g transform="translate(0.000000,741.000000) scale(0.100000,-0.100000)"
fill="#000000" stroke="none">
<path d="M810 6391 c0 -11 4 -22 8 -25 14 -9 35 12 29 28 -9 23 -37 20 -37 -3z"/>
<path d="M5350 5420 c0 -5 7 -10 16 -10 8 0 12 5 9 10 -3 6 -10 10 -16 10 -5
0 -9 -4 -9 -10z"/>
<path d="M4247 5413 c-4 -3 -7 -17 -7 -30 0 -18 5 -23 25 -23 17 0 25 5 25 18
0 28 -28 51 -43 35z"/>
<path d="M5163 5394 c-8 -21 19 -46 40 -38 21 8 22 40 1 48 -25 9 -34 7 -41
-10z"/>
<path d="M3893 5383 c-7 -3 -13 -11 -13 -20 0 -17 41 -14 47 3 4 13 -16 23
-34 17z"/>
<path d="M4687 5333 c-4 -3 -7 -12 -7 -20 0 -15 26 -18 34 -4 7 11 -18 33 -27
24z"/>
<path d="M5490 5291 c0 -12 6 -21 16 -21 9 0 14 7 12 17 -5 25 -28 28 -28 4z"/>
<path d="M5018 5251 c-52 -42 -106 -60 -213 -75 -243 -33 -377 -47 -512 -54
-90 -5 -147 -13 -157 -21 -8 -7 -49 -76 -89 -154 -96 -183 -193 -351 -205
-355 -5 -1 -25 29 -44 68 l-35 71 -13 -33 c-16 -40 -133 -219 -155 -238 -15
-12 -19 -11 -36 10 -10 14 -30 47 -44 74 -14 28 -25 43 -25 35 0 -19 -69 -129
-81 -129 -5 0 -15 11 -21 25 -6 14 -14 25 -17 25 -3 0 -19 -23 -36 -50 -16
-28 -32 -50 -36 -50 -7 0 -32 28 -44 48 -5 10 1 9 24 -2 40 -21 40 -8 0 30
-17 16 -53 62 -80 102 -27 41 -49 68 -49 60 0 -20 -66 -114 -111 -159 -47 -47
-49 -55 -9 -34 40 21 38 9 -7 -37 -23 -24 -32 -38 -22 -38 8 0 20 5 27 12 6 6
14 9 18 5 3 -3 -16 -27 -42 -53 l-49 -48 39 24 c34 20 37 21 28 4 -6 -10 -24
-32 -41 -48 -41 -39 -40 -54 1 -25 29 21 31 22 18 3 -8 -11 -34 -37 -57 -58
-51 -46 -55 -62 -10 -41 27 13 24 8 -22 -35 -30 -27 -50 -50 -43 -50 6 0 14 5
17 10 3 6 11 10 18 10 8 0 8 -3 -1 -12 -28 -28 -8 -24 40 8 72 47 91 43 34 -7
-26 -23 -45 -43 -43 -46 3 -2 28 10 56 26 28 17 58 28 66 25 8 -4 22 -1 30 6
9 7 19 10 23 6 4 -4 -12 -25 -35 -47 -43 -40 -45 -52 -5 -23 37 26 34 12 -9
-39 -22 -26 -36 -47 -31 -47 5 0 15 7 22 15 7 9 15 13 18 10 3 -3 -19 -30 -48
-60 -32 -32 -48 -55 -39 -55 8 0 20 5 27 12 6 6 14 9 18 6 3 -4 -17 -23 -45
-44 -28 -21 -51 -42 -51 -47 0 -10 12 -3 58 31 18 14 35 23 37 20 3 -3 -10
-16 -30 -29 -19 -13 -35 -27 -35 -31 0 -12 5 -10 60 27 72 48 85 43 26 -10
-28 -25 -48 -47 -45 -49 2 -3 29 10 58 29 30 18 60 31 66 29 6 -3 20 5 32 16
26 24 34 25 27 6 -4 -11 0 -13 15 -9 12 3 21 10 21 17 0 8 2 8 8 0 4 -6 17
-14 29 -18 19 -6 22 -4 16 11 -6 14 -1 13 24 -7 18 -14 32 -27 32 -30 1 -3
-22 -20 -49 -39 -48 -33 -62 -51 -39 -51 16 0 50 20 89 52 19 15 41 28 50 28
15 -1 3 -12 -70 -69 -22 -17 -28 -27 -21 -34 8 -8 17 -5 33 10 51 46 101 73
115 61 10 -8 13 -7 13 5 0 19 16 31 30 22 6 -4 -18 -33 -55 -67 -43 -39 -63
-64 -56 -71 6 -6 25 1 53 21 77 53 150 85 159 71 6 -10 11 -10 23 0 14 12 28
1 109 -81 56 -57 111 -103 140 -117 48 -23 49 -23 240 -12 106 6 219 15 252
21 33 5 116 19 185 30 155 26 664 153 905 225 149 45 322 85 368 85 5 0 4 -6
-2 -14 -19 -22 4 -28 30 -8 51 39 121 73 136 67 11 -4 30 7 55 32 l38 37 -6
-34 c-7 -34 -6 -34 12 -19 10 9 24 14 31 12 6 -2 13 4 16 14 4 17 5 17 6 -1 1
-13 7 -17 20 -13 12 3 22 -1 25 -10 9 -22 25 -6 19 20 -5 19 -2 18 30 -12 24
-22 41 -32 53 -27 16 6 136 -53 149 -74 8 -13 25 -13 25 -1 0 5 -28 37 -62 70
-53 52 -58 60 -33 51 16 -6 56 -29 88 -51 66 -46 101 -48 43 -3 -103 78 -103
93 -1 20 49 -35 75 -45 75 -28 0 5 -10 13 -22 19 -27 13 -121 94 -115 100 3 2
16 -2 31 -8 51 -24 39 3 -39 81 -76 76 -93 103 -38 60 56 -44 52 -17 -6 45
-52 56 -72 85 -57 85 2 0 20 -13 41 -30 62 -49 60 -34 -5 29 -66 65 -78 91
-30 66 54 -28 53 -16 -4 46 -32 34 -55 63 -53 65 2 2 21 -5 43 -15 21 -11 40
-16 42 -11 2 5 -18 28 -44 52 -50 47 -114 133 -155 212 -26 49 -26 49 -33 21
-4 -15 -18 -44 -32 -64 -13 -19 -24 -40 -24 -46 0 -5 -20 -29 -43 -52 l-42
-42 -34 49 -34 50 -31 -50 c-17 -28 -33 -50 -37 -50 -3 0 -11 12 -18 27 l-13
27 -26 -47 -25 -47 -24 22 c-27 25 -24 34 6 18 29 -15 27 -9 -18 39 -21 23
-49 61 -62 85 l-23 44 -18 -37 c-10 -20 -38 -60 -64 -89 -43 -49 -44 -51 -17
-41 l28 10 -34 -35 c-36 -37 -35 -44 0 -25 19 10 20 9 8 -13 -7 -13 -12 -26
-11 -30 13 -47 -83 101 -213 327 -127 220 -158 286 -196 423 -35 121 -43 130
-91 93z m164 -393 c91 -172 225 -389 300 -485 152 -195 227 -284 306 -364 95
-98 99 -89 -43 -109 -74 -11 -273 -63 -368 -96 -39 -14 -41 -14 -69 13 -50 47
-146 221 -177 317 -61 190 -68 259 -75 741 l-5 310 33 -101 c18 -55 62 -157
98 -226z m-207 303 c-13 -11 -238 -58 -335 -69 l-75 -9 80 -1 c44 -1 112 5
150 14 129 28 155 32 155 23 0 -5 -7 -9 -15 -9 -8 0 -12 -6 -9 -14 3 -9 -5
-18 -23 -24 -17 -6 -21 -11 -11 -11 32 -2 8 -28 -35 -39 -30 -8 -33 -10 -9 -7
17 3 32 2 32 -1 0 -10 -305 -522 -390 -656 -69 -107 -249 -366 -399 -575 -9
-12 -22 -23 -29 -23 -7 0 -11 -4 -8 -8 11 -19 -23 -49 -51 -46 -15 2 -20 1
-10 -2 20 -6 20 -9 7 -35 -14 -25 -24 -24 -90 6 l-55 25 31 -27 c17 -16 39
-33 50 -39 13 -8 16 -15 9 -22 -23 -24 -97 28 -228 158 -71 72 -132 129 -134
126 -6 -6 66 -110 109 -158 43 -48 185 -158 204 -158 15 0 19 -26 5 -34 -20
-13 -127 77 -256 214 -75 80 -150 157 -166 171 l-30 26 127 169 c206 274 387
562 495 790 68 143 89 164 163 164 103 1 579 54 666 75 69 16 87 18 75 6z m40
-103 c-4 -51 -8 -106 -10 -123 -1 -16 -6 -39 -10 -49 -5 -12 -5 -17 2 -13 6 4
8 -6 6 -26 -2 -18 -3 -45 -3 -61 0 -15 -5 -35 -12 -44 -8 -10 -9 -13 -1 -9 8
5 11 -7 11 -40 0 -38 -7 -57 -32 -90 -17 -23 -34 -43 -38 -43 -10 0 3 43 19
61 11 13 11 18 2 21 -10 3 -7 14 8 41 14 23 17 34 8 31 -18 -7 -8 33 14 60 9
11 10 16 4 12 -20 -11 -16 24 5 48 16 20 16 20 0 7 -11 -8 -18 -9 -18 -3 0 6
4 13 9 16 4 3 6 16 4 30 -3 13 0 27 6 30 6 4 11 12 11 17 0 6 -5 7 -12 3 -6
-4 -8 -3 -5 2 3 5 8 36 11 69 8 86 17 145 24 145 2 0 1 -42 -3 -92z m-32 0
c-2 -13 -14 -100 -28 -195 -45 -319 -82 -428 -314 -927 -110 -234 -147 -302
-191 -341 -26 -23 -139 -41 -325 -50 -66 -3 -132 -8 -148 -10 -25 -4 -27 -3
-16 17 6 11 43 55 83 97 127 137 481 653 663 966 38 66 111 190 161 276 50 86
94 163 98 172 9 25 22 21 17 -5z m10 -500 c-3 -41 -12 -73 -26 -93 -15 -22
-16 -26 -4 -16 15 12 17 11 17 -8 0 -12 -19 -43 -42 -69 l-42 -47 38 35 39 35
-7 -30 c-3 -16 -9 -43 -12 -60 -3 -16 -13 -38 -21 -47 -9 -10 -11 -18 -5 -18
12 0 -3 -56 -19 -74 -5 -6 -9 -18 -9 -27 0 -10 -12 -32 -27 -50 -16 -18 -22
-30 -15 -25 19 12 14 -9 -10 -40 -12 -15 -23 -33 -24 -41 -1 -7 -17 -35 -35
-63 -24 -37 -53 -64 -104 -96 -40 -24 -74 -44 -78 -44 -3 0 23 64 59 143 170
370 244 549 244 590 0 10 78 107 86 107 1 0 0 -28 -3 -62z m-1708 -178 c3 -5
1 -10 -4 -10 -6 0 -11 5 -11 10 0 6 2 10 4 10 3 0 8 -4 11 -10z m-341 -285
c-10 -8 -23 -14 -29 -14 -5 -1 1 8 15 19 14 10 27 17 29 14 3 -2 -4 -11 -15
-19z m2901 15 c3 -5 1 -10 -4 -10 -6 0 -11 5 -11 10 0 6 2 10 4 10 3 0 8 -4
11 -10z m-1121 -284 c-6 -17 -134 -99 -141 -92 -10 9 9 27 50 48 23 11 53 29
66 39 29 23 32 23 25 5z m-85 -103 c-18 -21 -49 -48 -68 -60 -20 -12 -30 -23
-22 -23 10 0 7 -8 -9 -25 -38 -41 -43 -29 -11 28 19 32 48 64 78 85 63 42 73
41 32 -5z"/>
<path d="M5160 4756 c24 -65 115 -232 171 -316 72 -108 212 -253 282 -294 26
-16 50 -26 52 -24 3 3 -43 56 -102 119 -184 195 -287 329 -373 482 -34 60 -46
73 -30 33z"/>
<path d="M5146 4240 c3 -19 20 -73 37 -119 23 -64 41 -96 77 -133 25 -26 54
-48 64 -48 20 0 19 2 -43 90 -25 36 -68 105 -94 155 -35 66 -46 81 -41 55z"/>
<path d="M4868 5095 c-3 -3 -25 -9 -49 -14 -34 -7 -37 -9 -14 -9 36 -1 121 25
89 27 -11 1 -23 -1 -26 -4z"/>
<path d="M4748 5063 c7 -3 16 -2 19 1 4 3 -2 6 -13 5 -11 0 -14 -3 -6 -6z"/>
<path d="M4835 5050 c-13 -6 -15 -9 -5 -9 8 0 22 4 30 9 18 12 2 12 -25 0z"/>
<path d="M4969 4663 c-13 -16 -12 -17 4 -4 9 7 17 15 17 17 0 8 -8 3 -21 -13z"/>
<path d="M4548 4268 c-35 -44 -176 -247 -285 -411 -36 -54 -62 -101 -59 -104
4 -4 27 13 51 37 80 78 361 520 331 520 -2 0 -19 -19 -38 -42z"/>
<path d="M4929 4493 c-13 -16 -12 -17 4 -4 9 7 17 15 17 17 0 8 -8 3 -21 -13z"/>
<path d="M4929 4413 c-13 -16 -12 -17 4 -4 16 13 21 21 13 21 -2 0 -10 -8 -17
-17z"/>
<path d="M4909 4283 l-34 -38 38 34 c20 19 37 36 37 38 0 8 -8 0 -41 -34z"/>
<path d="M4884 4193 c-15 -20 -23 -33 -16 -29 13 8 56 66 49 66 -3 0 -17 -17
-33 -37z"/>
<path d="M4864 4118 l-19 -23 23 19 c12 11 22 21 22 23 0 8 -8 2 -26 -19z"/>
<path d="M4789 4013 l-34 -38 38 34 c20 19 37 36 37 38 0 8 -8 0 -41 -34z"/>
<path d="M4774 3952 c-22 -20 -49 -48 -59 -62 -11 -14 9 2 43 35 56 54 67 66
60 65 -2 0 -21 -17 -44 -38z"/>
<path d="M5693 5173 c-17 -6 -16 -38 0 -52 21 -17 56 12 41 35 -12 20 -23 25
-41 17z"/>
<path d="M3803 5049 c-16 -16 -5 -39 17 -39 25 0 35 18 20 35 -15 18 -22 19
-37 4z"/>
<path d="M3490 5040 c0 -5 7 -10 15 -10 8 0 15 5 15 10 0 6 -7 10 -15 10 -8 0
-15 -4 -15 -10z"/>
<path d="M5396 4993 c-8 -21 17 -48 38 -40 21 8 21 43 0 51 -24 9 -31 7 -38
-11z"/>
<path d="M3413 4823 c-15 -6 -17 -39 -3 -48 15 -10 50 5 50 20 0 17 -30 34
-47 28z"/>
<path d="M4919 3041 c-10 -6 -58 -22 -109 -35 -103 -28 -144 -54 -191 -123
-49 -71 -69 -148 -69 -268 0 -164 31 -268 104 -352 44 -50 134 -96 224 -113
72 -15 283 -8 350 11 42 11 42 12 42 59 l0 47 -67 -18 c-82 -23 -234 -25 -310
-5 -108 29 -178 96 -213 206 -31 98 -26 249 11 330 43 92 115 145 227 169 93
19 250 8 335 -25 16 -6 18 -1 15 42 l-3 48 -50 13 c-67 18 -275 27 -296 14z"/>
<path d="M1170 2970 l0 -70 130 0 130 0 0 -380 0 -380 80 0 80 0 -2 380 -3
380 133 0 132 0 0 70 0 70 -340 0 -340 0 0 -70z"/>
<path d="M1950 2758 c0 -382 11 -441 101 -528 67 -65 131 -84 284 -85 106 0
140 4 184 20 72 26 142 91 172 157 24 52 24 60 27 386 l3 332 -80 0 -81 0 0
-305 c0 -252 -3 -312 -15 -342 -34 -82 -91 -112 -209 -113 -104 0 -155 23
-194 88 l-27 47 -3 313 -3 312 -80 0 -79 0 0 -282z"/>
<path d="M2920 2590 l0 -450 53 1 c28 1 63 4 77 8 l25 7 5 329 5 329 157 -220
c86 -122 168 -228 182 -237 15 -10 30 -33 36 -57 6 -21 15 -42 20 -45 5 -3 26
-30 46 -60 l36 -55 79 0 79 0 0 450 0 450 -75 0 -75 0 0 -325 c0 -179 -3 -325
-7 -325 -5 0 -37 41 -73 91 -36 50 -74 103 -85 117 -12 15 -74 101 -140 192
-65 91 -132 184 -149 207 l-31 42 -82 1 -83 0 0 -450z"/>
<path d="M3920 2590 l0 -450 81 0 81 0 -5 448 c-3 246 -6 448 -6 450 -1 1 -35
2 -76 2 l-75 0 0 -450z"/>
<path d="M5771 3023 c-14 -27 -371 -872 -371 -878 0 -3 25 -5 56 -3 l57 3 160
392 c89 216 164 390 168 385 4 -4 44 -95 88 -202 l80 -195 -114 -3 -113 -3
-16 -44 -15 -45 149 0 148 0 34 -82 c19 -46 46 -111 59 -145 l24 -63 63 0 62
0 -14 33 c-142 335 -240 564 -246 576 -5 9 -34 78 -66 154 l-57 137 -63 0
c-50 0 -65 -4 -73 -17z"/>
<path d="M6440 2590 l0 -450 45 0 45 0 0 371 c0 203 3 368 8 365 4 -2 79 -169
167 -370 l160 -365 46 -1 45 0 63 148 c35 81 70 161 77 177 8 17 52 118 99
225 l85 195 0 -372 0 -373 50 0 50 0 0 450 0 450 -69 0 -69 0 -74 -172 c-42
-95 -115 -264 -163 -376 -48 -111 -90 -200 -93 -198 -3 3 -78 171 -167 373
l-161 368 -72 3 -72 3 0 -451z"/>
<path d="M7600 2590 l0 -450 55 0 55 0 0 405 0 405 154 0 c142 0 155 -2 187
-23 49 -32 72 -85 64 -146 -13 -95 -76 -153 -203 -187 -37 -9 -68 -18 -69 -19
-1 0 3 -21 10 -47 l12 -46 86 22 c192 50 281 145 281 302 0 86 -26 151 -74
185 -58 42 -108 49 -340 49 l-218 0 0 -450z"/>
<path d="M1619 1908 c-25 -8 -49 -44 -49 -72 0 -7 9 -25 21 -40 45 -57 137
-18 125 53 -8 50 -49 75 -97 59z m63 -25 c37 -33 10 -103 -41 -103 -24 0 -51
31 -51 58 0 53 54 79 92 45z"/>
<path d="M2222 1912 c-8 -2 -12 -28 -12 -73 l0 -69 38 1 c30 2 32 3 10 6 -22
3 -28 10 -28 29 0 19 5 24 25 24 14 0 25 5 25 10 0 6 -11 10 -25 10 -20 0 -25
5 -25 24 0 19 6 25 28 28 l27 3 -25 6 c-14 3 -31 4 -38 1z"/>
<path d="M2460 1909 c-12 -7 -10 -9 8 -9 21 0 22 -4 22 -65 0 -37 4 -65 10
-65 6 0 10 28 10 65 0 54 3 65 17 65 24 0 13 6 -22 13 -17 3 -37 2 -45 -4z"/>
<path d="M2622 1906 c-12 -17 -13 -109 -2 -126 7 -11 10 -7 10 18 0 40 12 41
40 1 25 -34 41 -32 18 3 -13 20 -14 26 -1 45 21 31 8 60 -28 65 -16 3 -33 0
-37 -6z m56 -32 c2 -13 -4 -24 -13 -28 -24 -9 -35 1 -35 30 0 21 4 25 23 22
13 -2 23 -11 25 -24z"/>
<path d="M3632 1912 c-8 -2 -12 -28 -12 -73 l0 -69 38 2 c36 1 36 1 5 5 -27 4
-33 9 -33 29 0 19 5 24 24 24 14 0 28 5 31 10 4 6 -7 10 -25 10 -27 0 -31 3
-28 22 2 16 12 24 33 28 30 6 30 6 5 11 -14 3 -31 4 -38 1z"/>
<path d="M3765 1912 c-10 -10 -5 -142 5 -142 6 0 10 14 10 30 0 17 4 30 9 30
6 0 18 -13 28 -30 9 -16 21 -30 26 -30 5 0 2 11 -7 25 -13 20 -14 30 -5 46 18
34 4 66 -31 71 -17 3 -32 2 -35 0z m61 -27 c7 -18 -12 -45 -32 -45 -9 0 -14
11 -14 30 0 23 4 30 20 30 11 0 23 -7 26 -15z"/>
<path d="M4084 1908 c-3 -4 2 -8 10 -8 13 0 16 -13 16 -65 0 -37 4 -65 10 -65
6 0 10 28 10 64 0 59 2 65 23 68 13 3 5 6 -21 9 -24 2 -46 1 -48 -3z"/>
<path d="M4730 1912 c-51 -16 -68 -84 -30 -122 39 -39 117 -19 108 27 -3 19
-58 32 -58 14 0 -6 9 -11 20 -11 24 0 27 -25 4 -34 -26 -10 -40 -7 -62 13 -27
23 -28 55 -2 81 22 22 42 25 71 10 11 -6 19 -7 19 -1 0 16 -45 31 -70 23z"/>
<path d="M5287 1909 c-28 -16 -21 -56 13 -74 34 -17 37 -27 15 -45 -12 -10
-19 -10 -27 -2 -18 18 -32 14 -18 -4 8 -8 25 -14 39 -12 20 2 27 9 29 30 3 21
-3 30 -27 43 -33 17 -41 42 -16 51 8 4 22 1 30 -6 10 -8 15 -9 15 -2 0 18 -34
31 -53 21z"/>
<path d="M5422 1912 c-8 -2 -12 -28 -12 -73 l0 -69 38 1 c30 2 32 3 10 6 -22
3 -28 10 -28 29 0 19 5 24 25 24 14 0 25 5 25 10 0 6 -11 10 -25 10 -20 0 -25
5 -25 24 0 19 6 25 28 28 l27 3 -25 6 c-14 3 -31 4 -38 1z"/>
<path d="M5747 1913 c-11 -10 -8 -143 3 -143 6 0 10 26 10 58 l1 57 35 -57
c20 -32 40 -58 45 -58 5 0 8 33 7 73 -1 59 -2 63 -5 22 -2 -27 -8 -54 -14 -59
-6 -6 -9 -6 -9 1 0 18 -66 113 -73 106z"/>
<path d="M5968 1908 c-70 -24 -48 -138 27 -138 64 0 98 76 53 117 -31 27 -48
32 -80 21z m71 -34 c12 -15 21 -30 21 -34 0 -19 -39 -53 -63 -55 -51 -6 -78
69 -35 99 32 23 54 20 77 -10z"/>
<path d="M6485 1910 c-28 -5 -29 -6 -7 -12 21 -6 23 -12 21 -62 -1 -31 1 -59
4 -63 4 -3 7 23 7 60 0 60 2 66 23 69 21 3 21 4 2 9 -11 3 -33 2 -50 -1z"/>
<path d="M6626 1913 c-10 -11 -7 -143 4 -143 6 0 10 14 10 30 0 17 4 30 10 30
5 0 16 -13 25 -30 9 -16 20 -30 25 -30 5 0 1 14 -8 31 -13 24 -14 33 -4 36 16
6 15 48 -2 62 -17 14 -52 22 -60 14z m54 -28 c10 -12 10 -18 0 -30 -21 -25
-40 -18 -40 15 0 33 19 40 40 15z"/>
<path d="M1430 1907 c0 -4 7 -21 15 -37 8 -16 19 -46 24 -67 8 -33 9 -34 10
-10 1 15 10 45 21 67 23 44 24 50 11 50 -5 0 -14 -15 -21 -32 -11 -30 -13 -31
-23 -15 -23 36 -36 52 -37 44z"/>
<path d="M1790 1852 c0 -32 5 -63 12 -70 17 -17 65 -15 72 4 10 26 7 124 -4
124 -6 0 -10 -26 -10 -59 0 -39 -4 -61 -12 -64 -29 -10 -38 6 -38 64 0 33 -4
59 -10 59 -6 0 -10 -26 -10 -58z"/>
<path d="M2034 1893 c19 -60 45 -118 52 -118 5 0 19 27 31 60 25 68 26 75 15
75 -5 0 -16 -25 -26 -55 -9 -30 -19 -55 -21 -55 -2 0 -12 25 -21 55 -10 30
-22 55 -27 55 -4 0 -6 -8 -3 -17z"/>
<path d="M2770 1845 c0 -37 4 -65 10 -65 6 0 10 28 10 65 0 37 -4 65 -10 65
-6 0 -10 -28 -10 -65z"/>
<path d="M3006 1902 c-3 -5 -3 -33 -1 -63 2 -30 4 -57 5 -61 0 -5 15 -8 33 -8
42 0 77 31 77 69 0 26 -26 61 -45 61 -5 0 -2 -6 7 -12 30 -24 31 -56 3 -84
-42 -42 -60 -29 -60 44 0 57 -6 75 -19 54z"/>
<path d="M3333 1903 c9 -2 23 -2 30 0 6 3 -1 5 -18 5 -16 0 -22 -2 -12 -5z"/>
<path d="M3442 1899 c16 -62 44 -129 52 -126 13 4 57 137 46 137 -5 0 -17 -25
-26 -55 -10 -30 -20 -52 -24 -50 -4 3 -13 25 -20 50 -7 25 -17 48 -22 51 -6 4
-8 0 -6 -7z"/>
<path d="M3920 1908 c0 -2 9 -27 20 -56 11 -29 18 -57 15 -62 -3 -5 -1 -11 4
-14 5 -3 11 9 13 27 3 17 13 49 22 70 20 45 6 50 -16 5 l-16 -33 -10 27 c-9
21 -32 48 -32 36z"/>
<path d="M4243 1840 c0 -41 2 -60 4 -42 4 29 7 32 39 32 32 0 34 -2 34 -32 0
-18 4 -28 8 -22 5 5 6 38 2 74 -4 36 -8 50 -8 33 -2 -31 -5 -33 -36 -33 -32 0
-35 3 -39 33 -2 17 -4 -2 -4 -43z"/>
<path d="M4409 1905 c-3 -30 0 -127 5 -132 3 -4 6 26 6 65 0 40 -2 72 -5 72
-3 0 -5 -2 -6 -5z"/>
<path d="M4490 1840 c0 -84 18 -94 22 -12 l3 57 34 -58 c18 -32 38 -56 45 -54
14 5 20 117 7 130 -8 8 -11 -7 -11 -48 l0 -60 -20 25 c-11 14 -20 30 -20 35
-1 15 -37 55 -49 55 -7 0 -11 -26 -11 -70z"/>
<path d="M4980 1840 l0 -70 38 1 c30 2 32 3 10 6 -22 3 -28 10 -28 29 0 19 5
24 25 24 14 0 25 5 25 10 0 6 -11 10 -25 10 -20 0 -25 5 -25 24 0 19 6 26 28
29 22 3 20 4 -10 6 l-38 1 0 -70z"/>
<path d="M5130 1852 c-3 -34 -3 -67 -2 -72 2 -6 18 -9 35 -9 30 2 30 2 5 6
-26 4 -27 7 -30 71 l-3 67 -5 -63z"/>
<path d="M6130 1905 c0 -21 35 -135 42 -135 4 0 12 19 18 43 6 23 12 47 14 52
2 6 10 -11 17 -36 8 -26 18 -48 23 -50 9 -4 48 122 40 130 -7 7 -11 -2 -26
-54 l-14 -50 -14 53 c-8 28 -17 52 -22 52 -4 0 -13 -20 -19 -45 -6 -25 -15
-45 -19 -45 -4 0 -10 18 -14 39 -3 22 -11 43 -16 46 -6 3 -10 3 -10 0z"/>
<path d="M6780 1905 c0 -3 7 -22 15 -42 8 -19 15 -48 15 -64 0 -16 5 -29 10
-29 6 0 10 11 10 24 0 13 9 45 20 70 10 25 15 46 11 46 -5 0 -14 -13 -21 -30
-7 -16 -16 -30 -20 -30 -5 0 -13 14 -19 30 -9 26 -21 40 -21 25z"/>
<path d="M7056 1888 c-38 -54 -2 -121 62 -116 19 2 37 9 40 16 3 11 0 12 -15
4 -27 -15 -53 -9 -74 17 -37 46 22 114 73 82 14 -9 18 -8 18 4 0 11 -11 15
-44 15 -35 0 -48 -5 -60 -22z"/>
<path d="M7258 1843 c-24 -65 -28 -98 -7 -60 6 10 22 17 39 17 17 0 33 -7 39
-17 5 -10 12 -15 15 -12 7 7 -45 139 -54 139 -4 0 -18 -30 -32 -67z m51 -15
c1 -12 -6 -18 -19 -18 -23 0 -24 8 -9 47 10 26 12 27 19 8 5 -11 9 -28 9 -37z"/>
<path d="M7420 1840 c0 -40 4 -70 10 -70 6 0 10 21 10 48 0 26 3 57 6 70 5 16
2 22 -10 22 -13 0 -16 -12 -16 -70z"/>
<path d="M7515 1861 c-9 -28 -20 -53 -25 -56 -5 -3 -14 13 -20 36 -6 22 -14
39 -17 36 -7 -8 27 -107 37 -107 5 0 17 26 28 58 l20 57 1 -57 c1 -33 5 -58
11 -58 15 0 8 132 -7 137 -6 2 -18 -18 -28 -46z"/>
<path d="M7631 1838 c1 -49 4 -63 8 -43 4 21 13 31 29 33 55 8 47 82 -8 82
l-30 0 1 -72z m57 34 c2 -15 -2 -22 -12 -22 -9 0 -19 -1 -23 -2 -8 -4 -14 33
-6 44 10 17 38 3 41 -20z"/>
<path d="M3301 1838 l-1 -68 38 2 c36 1 36 1 5 5 -27 4 -33 9 -33 29 0 19 5
24 24 24 14 0 28 5 31 10 4 6 -6 10 -24 10 -25 0 -30 5 -34 28 -2 15 -5 -3 -6
-40z"/>
<path d="M2860 1830 l0 -60 38 1 c30 2 32 3 10 6 -22 3 -28 10 -28 29 0 19 5
24 25 24 14 0 25 5 25 10 0 6 -11 10 -25 10 -18 0 -25 5 -25 20 0 11 -4 20
-10 20 -6 0 -10 -27 -10 -60z"/>
</g>
</svg>
